<mxfile host="65bd71144e">
    <diagram id="yq475JOimHWiMzcq3iqR" name="Page-1">
        <mxGraphModel dx="1265" dy="1105" grid="1" gridSize="10" guides="1" tooltips="1" connect="1" arrows="1" fold="1" page="1" pageScale="1" pageWidth="850" pageHeight="1100" math="0" shadow="0">
            <root>
                <mxCell id="0"/>
                <mxCell id="1" parent="0"/>
                <mxCell id="3" value="&lt;b&gt;&lt;font color=&quot;#ff0000&quot;&gt;View&lt;/font&gt;&lt;/b&gt;&lt;br&gt;(Component)" style="whiteSpace=wrap;html=1;aspect=fixed;" parent="1" vertex="1">
                    <mxGeometry x="200" y="240" width="80" height="80" as="geometry"/>
                </mxCell>
                <mxCell id="4" value="&lt;b&gt;&lt;font color=&quot;#ff0000&quot;&gt;Action&lt;br&gt;Creator&lt;/font&gt;&lt;/b&gt;" style="whiteSpace=wrap;html=1;aspect=fixed;" parent="1" vertex="1">
                    <mxGeometry x="200" y="100" width="80" height="80" as="geometry"/>
                </mxCell>
                <mxCell id="6" value="&lt;b&gt;&lt;font color=&quot;#ff0000&quot;&gt;Action&lt;/font&gt;&lt;/b&gt;" style="ellipse;whiteSpace=wrap;html=1;" parent="1" vertex="1">
                    <mxGeometry x="350" y="250" width="90" height="60" as="geometry"/>
                </mxCell>
                <mxCell id="7" value="" style="shape=flexArrow;endArrow=classic;html=1;" parent="1" edge="1">
                    <mxGeometry width="50" height="50" relative="1" as="geometry">
                        <mxPoint x="300" y="279.79" as="sourcePoint"/>
                        <mxPoint x="340" y="279.79" as="targetPoint"/>
                    </mxGeometry>
                </mxCell>
                <mxCell id="10" value="" style="shape=flexArrow;endArrow=classic;html=1;" parent="1" edge="1">
                    <mxGeometry width="50" height="50" relative="1" as="geometry">
                        <mxPoint x="140" y="279.79" as="sourcePoint"/>
                        <mxPoint x="180" y="279.79" as="targetPoint"/>
                    </mxGeometry>
                </mxCell>
                <mxCell id="11" value="" style="shape=flexArrow;endArrow=classic;html=1;" parent="1" edge="1">
                    <mxGeometry width="50" height="50" relative="1" as="geometry">
                        <mxPoint x="480" y="279.64" as="sourcePoint"/>
                        <mxPoint x="560" y="280.04" as="targetPoint"/>
                    </mxGeometry>
                </mxCell>
                <mxCell id="14" value="" style="shape=flexArrow;endArrow=classic;startArrow=classic;html=1;entryX=0.5;entryY=1;entryDx=0;entryDy=0;" parent="1" target="4" edge="1">
                    <mxGeometry width="100" height="100" relative="1" as="geometry">
                        <mxPoint x="239.79" y="240" as="sourcePoint"/>
                        <mxPoint x="239.79" y="190" as="targetPoint"/>
                        <Array as="points">
                            <mxPoint x="239.79" y="220"/>
                        </Array>
                    </mxGeometry>
                </mxCell>
                <mxCell id="15" value="User&lt;br&gt;Input" style="shape=umlActor;verticalLabelPosition=bottom;verticalAlign=top;html=1;outlineConnect=0;" parent="1" vertex="1">
                    <mxGeometry x="90" y="250" width="30" height="60" as="geometry"/>
                </mxCell>
                <mxCell id="18" value="Action...何が起きたか？の&lt;b&gt;&lt;u&gt;&lt;i&gt;作成&lt;/i&gt;&lt;/u&gt;&lt;/b&gt;&lt;br&gt;" style="text;html=1;resizable=0;autosize=1;align=center;verticalAlign=middle;points=[];fillColor=none;strokeColor=none;rounded=0;" parent="1" vertex="1">
                    <mxGeometry x="150" y="70" width="180" height="20" as="geometry"/>
                </mxCell>
                <mxCell id="19" value="Actionの&lt;b&gt;&lt;u&gt;&lt;i&gt;実行&lt;/i&gt;&lt;/u&gt;&lt;/b&gt;&lt;br&gt;" style="text;html=1;resizable=0;autosize=1;align=center;verticalAlign=middle;points=[];fillColor=none;strokeColor=none;rounded=0;" parent="1" vertex="1">
                    <mxGeometry x="355" y="210" width="80" height="20" as="geometry"/>
                </mxCell>
                <mxCell id="20" value="&lt;b&gt;&lt;font color=&quot;#ff0000&quot;&gt;Dispatch&lt;/font&gt;&lt;/b&gt;&lt;br&gt;（Actionが実行されたことを通知）" style="text;html=1;resizable=0;autosize=1;align=center;verticalAlign=middle;points=[];fillColor=none;strokeColor=none;rounded=0;" parent="1" vertex="1">
                    <mxGeometry x="425" y="300" width="200" height="30" as="geometry"/>
                </mxCell>
                <mxCell id="21" value="" style="whiteSpace=wrap;html=1;aspect=fixed;fontColor=#FF0000;" parent="1" vertex="1">
                    <mxGeometry x="625" y="150" width="260" height="260" as="geometry"/>
                </mxCell>
                <mxCell id="22" value="&lt;b&gt;&lt;font color=&quot;#ff0000&quot; style=&quot;font-size: 22px&quot;&gt;Store&lt;/font&gt;&lt;/b&gt;" style="text;html=1;resizable=0;autosize=1;align=center;verticalAlign=middle;points=[];fillColor=none;strokeColor=none;rounded=0;" parent="1" vertex="1">
                    <mxGeometry x="720" y="180" width="70" height="20" as="geometry"/>
                </mxCell>
                <mxCell id="23" value="State" style="rounded=0;whiteSpace=wrap;html=1;fontSize=22;fontColor=#FF0000;" parent="1" vertex="1">
                    <mxGeometry x="640" y="220" width="100" height="50" as="geometry"/>
                </mxCell>
                <mxCell id="24" value="Reducer" style="rounded=0;whiteSpace=wrap;html=1;fontSize=22;fontColor=#FF0000;" parent="1" vertex="1">
                    <mxGeometry x="765" y="220" width="105" height="50" as="geometry"/>
                </mxCell>
                <mxCell id="25" value="初期状態" style="text;html=1;resizable=0;autosize=1;align=center;verticalAlign=middle;points=[];fillColor=none;strokeColor=none;rounded=0;" parent="1" vertex="1">
                    <mxGeometry x="660" y="290" width="60" height="20" as="geometry"/>
                </mxCell>
                <mxCell id="26" value="Stateの状態を更新" style="text;html=1;resizable=0;autosize=1;align=center;verticalAlign=middle;points=[];fillColor=none;strokeColor=none;rounded=0;" parent="1" vertex="1">
                    <mxGeometry x="765" y="290" width="120" height="20" as="geometry"/>
                </mxCell>
                <mxCell id="29" value="&lt;font style=&quot;font-size: 36px&quot;&gt;Redux&lt;/font&gt;" style="text;html=1;resizable=0;autosize=1;align=center;verticalAlign=middle;points=[];fillColor=#0050ef;strokeColor=#001DBC;rounded=0;fontSize=22;fontColor=#ffffff;" parent="1" vertex="1">
                    <mxGeometry x="20" y="370" width="120" height="40" as="geometry"/>
                </mxCell>
                <mxCell id="30" value="&lt;font style=&quot;font-size: 36px&quot;&gt;RTK&lt;/font&gt;" style="text;html=1;resizable=0;autosize=1;align=center;verticalAlign=middle;points=[];fillColor=#0050ef;strokeColor=#001DBC;rounded=0;fontSize=22;fontColor=#ffffff;" parent="1" vertex="1">
                    <mxGeometry x="35" y="880" width="90" height="40" as="geometry"/>
                </mxCell>
                <mxCell id="31" value="" style="whiteSpace=wrap;html=1;aspect=fixed;fontColor=#FF0000;" parent="1" vertex="1">
                    <mxGeometry x="610" y="710" width="340" height="340" as="geometry"/>
                </mxCell>
                <mxCell id="32" value="&lt;b&gt;&lt;font color=&quot;#ff0000&quot; style=&quot;font-size: 22px&quot;&gt;Store&lt;/font&gt;&lt;/b&gt;" style="text;html=1;resizable=0;autosize=1;align=center;verticalAlign=middle;points=[];fillColor=none;strokeColor=none;rounded=0;" parent="1" vertex="1">
                    <mxGeometry x="745" y="680" width="70" height="20" as="geometry"/>
                </mxCell>
                <mxCell id="33" value="" style="rounded=0;whiteSpace=wrap;html=1;fontSize=36;fontColor=#FF0000;rotation=90;" parent="1" vertex="1">
                    <mxGeometry x="585" y="835" width="250" height="140" as="geometry"/>
                </mxCell>
                <mxCell id="34" value="&lt;font style=&quot;font-size: 24px&quot;&gt;Slice&lt;/font&gt;" style="text;html=1;resizable=0;autosize=1;align=center;verticalAlign=middle;points=[];fillColor=none;strokeColor=none;rounded=0;fontSize=36;fontColor=#FF0000;" parent="1" vertex="1">
                    <mxGeometry x="675" y="730" width="70" height="50" as="geometry"/>
                </mxCell>
                <mxCell id="35" value="&lt;font style=&quot;font-size: 24px&quot;&gt;&lt;u&gt;State&lt;/u&gt;&lt;/font&gt;" style="text;html=1;resizable=0;autosize=1;align=left;verticalAlign=middle;points=[];fillColor=none;strokeColor=none;rounded=0;fontSize=36;fontColor=#FF0000;" parent="1" vertex="1">
                    <mxGeometry x="675" y="800" width="70" height="50" as="geometry"/>
                </mxCell>
                <mxCell id="36" value="&lt;font style=&quot;font-size: 24px&quot;&gt;&lt;u&gt;Reducer&lt;/u&gt;&lt;/font&gt;" style="text;html=1;resizable=0;autosize=1;align=left;verticalAlign=middle;points=[];fillColor=none;strokeColor=none;rounded=0;fontSize=36;fontColor=#FF0000;" parent="1" vertex="1">
                    <mxGeometry x="660" y="870" width="110" height="50" as="geometry"/>
                </mxCell>
                <mxCell id="37" value="&lt;div style=&quot;text-align: left&quot;&gt;&lt;span style=&quot;font-size: 24px&quot;&gt;&lt;u&gt;Action&lt;/u&gt;&lt;/span&gt;&lt;/div&gt;&lt;font style=&quot;font-size: 24px&quot;&gt;&lt;div style=&quot;text-align: left&quot;&gt;&lt;span&gt;&lt;u&gt;Creator&lt;/u&gt;&lt;/span&gt;&lt;/div&gt;&lt;/font&gt;" style="text;html=1;resizable=0;autosize=1;align=center;verticalAlign=middle;points=[];fillColor=none;strokeColor=none;rounded=0;fontSize=36;fontColor=#FF0000;" parent="1" vertex="1">
                    <mxGeometry x="665" y="920" width="100" height="100" as="geometry"/>
                </mxCell>
                <mxCell id="38" value="&lt;font style=&quot;font-size: 16px&quot; color=&quot;#ffffff&quot;&gt;ActionCreatorは自動で作成される&lt;/font&gt;" style="text;html=1;resizable=0;autosize=1;align=left;verticalAlign=middle;points=[];fillColor=none;strokeColor=none;rounded=0;fontSize=24;fontColor=#FF0000;" parent="1" vertex="1">
                    <mxGeometry x="640" y="1050" width="260" height="40" as="geometry"/>
                </mxCell>
                <mxCell id="39" value="&lt;font style=&quot;font-size: 30px&quot;&gt;&lt;b&gt;&lt;u&gt;&lt;font color=&quot;#ff0000&quot;&gt;Slice&lt;/font&gt;&lt;/u&gt;&lt;/b&gt;&lt;br&gt;state,reducer,action(自動生成)の2つを作成する&lt;/font&gt;" style="text;html=1;resizable=0;autosize=1;align=center;verticalAlign=middle;points=[];fillColor=none;strokeColor=none;rounded=0;" vertex="1" parent="1">
                    <mxGeometry x="35" y="520" width="640" height="50" as="geometry"/>
                </mxCell>
                <mxCell id="41" value="&lt;font style=&quot;font-size: 30px&quot;&gt;&lt;font color=&quot;#ff0000&quot;&gt;&lt;b&gt;&lt;u&gt;Store&lt;/u&gt;&lt;/b&gt;&lt;/font&gt;&lt;br&gt;SliceをStoreに登録&lt;br&gt;&lt;/font&gt;" style="text;html=1;resizable=0;autosize=1;align=center;verticalAlign=middle;points=[];fillColor=none;strokeColor=none;rounded=0;" vertex="1" parent="1">
                    <mxGeometry x="220" y="700" width="270" height="50" as="geometry"/>
                </mxCell>
                <mxCell id="42" value="&lt;font style=&quot;font-size: 30px&quot;&gt;&lt;font color=&quot;#ff0000&quot;&gt;&lt;b&gt;&lt;u&gt;HOOKS&lt;/u&gt;&lt;/b&gt;&lt;/font&gt;&lt;br&gt;useSelector(stateにアクセス)&lt;br&gt;useDispatch(actionsをラップ)&lt;br&gt;&lt;/font&gt;" style="text;html=1;resizable=0;autosize=1;align=center;verticalAlign=middle;points=[];fillColor=none;strokeColor=none;rounded=0;" vertex="1" parent="1">
                    <mxGeometry x="150" y="920" width="410" height="70" as="geometry"/>
                </mxCell>
                <mxCell id="43" value="" style="shape=flexArrow;endArrow=classic;html=1;fontSize=30;fontColor=#FF0000;" edge="1" parent="1">
                    <mxGeometry width="50" height="50" relative="1" as="geometry">
                        <mxPoint x="355" y="600" as="sourcePoint"/>
                        <mxPoint x="355" y="670" as="targetPoint"/>
                    </mxGeometry>
                </mxCell>
                <mxCell id="44" value="" style="shape=flexArrow;endArrow=classic;html=1;fontSize=30;fontColor=#FF0000;" edge="1" parent="1">
                    <mxGeometry width="50" height="50" relative="1" as="geometry">
                        <mxPoint x="355" y="800.0000000000001" as="sourcePoint"/>
                        <mxPoint x="355" y="870" as="targetPoint"/>
                    </mxGeometry>
                </mxCell>
            </root>
        </mxGraphModel>
    </diagram>
</mxfile>